<svg width="1770" height="434" xmlns="http://www.w3.org/2000/svg"><g fill="none" fill-rule="evenodd"><path d="M792.257 363.286c-14.893-6.902-27.425-13.259-27.609-14.167-.543-1.453 109.159-243.014 111.338-245.556.363-.364 6.357 1.816 13.259 5.085l12.535 5.812 11.98-5.994c6.54-3.087 12.17-5.448 12.72-4.903 2.36 2.361 111.88 243.922 111.52 245.375-.37 1.089-12.72 7.446-27.61 14.348l-26.7 12.35-9.63-20.342c-5.08-11.26-23.61-51.399-41.04-89.541l-31.61-69.017-39.772 86.272c-21.795 47.585-40.321 87.906-40.866 89.541-1.089 2.724-4.722 1.634-28.515-9.263zm517.633-.182c-14.9-6.72-27.43-13.077-27.612-13.985-.538-1.453 109.162-243.014 111.342-245.556.36-.364 6.17 1.816 12.71 4.903l12.17 5.631 11.44-5.812c6.36-3.088 11.81-5.267 12.35-4.722 2.36 2.361 111.88 243.922 111.52 245.375-1.09 2.906-53.94 26.698-55.21 24.882-.55-.908-18.89-40.502-40.69-88.088-21.79-47.404-40.14-85.545-40.68-84.455-.73.908-19.07 40.684-40.87 88.088l-39.59 86.271-26.88-12.532zm319.66 7.265c-7.99-1.089-20.16-2.724-27.25-3.995l-12.71-2.362-.55-22.339c-.36-17.618 0-22.159 2-22.159 1.27 0 8.18 1.998 15.08 4.359 32.33 11.261 69.38 13.441 86.09 4.904 15.07-7.81 21.79-16.528 21.79-28.696 0-8.355-4.72-16.71-13.07-22.885-3.27-2.361-20.71-12.532-38.69-22.158-39.59-21.432-51.22-29.242-59.75-39.595-12.17-14.893-17.08-33.782-13.81-52.489 5.45-29.242 26.34-48.857 59.21-55.214 23.61-4.359 64.84-3.088 95.72 3.088l10.35 2.179v21.613c0 17.436-.54 21.614-2.36 20.887-60.48-23.248-116.97-16.164-113.15 13.985.54 4.541 2.72 8.9 5.99 12.169 2.72 2.906 22.7 14.712 44.14 26.336 21.43 11.624 42.31 23.429 46.49 26.335 12.9 8.9 24.34 21.432 29.42 32.148 4.36 9.263 4.91 12.532 4.91 29.423s-.55 20.342-4.91 29.423c-9.8 20.887-28.51 35.417-55.03 42.501-13.26 3.45-58.84 4.903-79.91 2.542zm-556.68-132.586v-127.5l60.48.726c50.13.727 61.93 1.453 69.74 3.996 13.81 4.359 24.16 13.077 30.52 25.609 4.9 9.808 5.44 12.169 5.44 28.878 0 15.62-.54 19.616-4.17 26.518-5.63 10.715-15.44 20.886-26.16 26.88-4.9 2.724-8.72 5.267-8.72 5.812 0 .545 4.55 3.269 10.18 6.175 15.25 7.992 27.06 19.616 33.78 33.238 5.08 10.171 5.99 14.348 6.54 28.515.54 13.803 0 18.344-3.27 27.425-5.45 14.53-20.34 29.605-35.6 35.598-10.54 4.178-12.17 4.359-74.65 4.904l-64.11.545V237.783zm98.98 88.451c23.43-9.081 29.24-38.141 11.81-58.119-9.81-11.08-21.98-15.983-42.14-17.255l-15.98-.908v78.644l20.52-.182c11.08 0 22.89-1.09 25.79-2.18zm-13.62-115.876c16.53-5.449 28.52-23.248 26.7-39.049-1.82-17.436-10.35-22.522-39.78-23.975l-19.61-.908v68.291l13.26-1.09c7.08-.726 15.98-2.179 19.43-3.269zm-486.753 135.31c-7.265-2.906-7.265-3.632-7.265-102.799v-95.898h-30.876c-35.962 0-35.054.363-35.236-19.979-.181-15.438 1.635-21.068 6.539-22.521 5.449-1.453 166.368-1.453 171.817 0 5.085 1.453 6.72 7.083 6.538 22.703-.363 20.342.545 19.797-35.235 19.797h-30.876v95.898c0 79.37-.363 96.442-2.543 99.348-2.179 3.088-5.267 3.633-21.25 3.996-10.352.182-20.16 0-21.613-.545z" fill="#000" fill-rule="nonzero"/><path fill="#000" d="M0 0h466v434H0z"/><path d="M63.61 382.552C46.245 374.015 32 366.698 32 366.291c0-.813 161.174-337.96 166.058-347.175 1.492-2.98 1.492-2.98 15.873 3.795l14.382 6.911 13.702-6.91L255.853 16l2.17 4.472C271.048 45.27 423.811 366.425 423 367.104c-.546.542-15.198 7.86-32.7 16.126-24.42 11.654-32.017 14.77-32.831 13.28-.679-.949-29.983-61.928-65.257-135.51-35.274-73.581-64.442-133.34-64.985-132.799-.407.543-29.711 61.522-65.12 135.374C126.696 337.563 97.256 398 96.441 398c-.678 0-15.602-7.046-32.832-15.448z" fill="#FFF" fill-rule="nonzero"/></g></svg>