<svg width="24" height="24" viewBox="0 0 24 24" fill="none" xmlns="http://www.w3.org/2000/svg">
<g filter="url(#filter0_b_122_1612)">
<rect width="24" height="24" rx="12" fill="#F2F2F7"/>
<path d="M7.06191 17.1619C7.3793 17.4792 7.9125 17.4666 8.21719 17.1682L12.0004 13.385L15.7772 17.1682C16.0883 17.4792 16.6215 17.4792 16.9325 17.1619C17.2436 16.8445 17.2499 16.3176 16.9389 16.0066L13.162 12.2234L16.9389 8.44653C17.2499 8.1355 17.2499 7.60864 16.9325 7.29126C16.6151 6.98022 16.0883 6.97388 15.7772 7.28491L12.0004 11.0681L8.21719 7.28491C7.9125 6.98657 7.37295 6.97388 7.06191 7.29126C6.75088 7.60864 6.75723 8.14185 7.05557 8.44019L10.8388 12.2234L7.05557 16.0129C6.75723 16.3113 6.74453 16.8508 7.06191 17.1619Z" fill="#3C3C43" fill-opacity="0.6"/>
</g>
<defs>
<filter id="filter0_b_122_1612" x="-54.3656" y="-54.3656" width="132.731" height="132.731" filterUnits="userSpaceOnUse" color-interpolation-filters="sRGB">
<feComposite in2="SourceAlpha" operator="in" result="effect1_backgroundBlur_122_1612"/>
</filter>
</defs>
</svg>
