<svg width="14" height="14" viewBox="0 0 14 14" fill="none" xmlns="http://www.w3.org/2000/svg">
<path d="M13.2733 4.76C13.2733 4.76 13.2733 4.76 13.2733 4.72667C12.8036 3.44415 11.9513 2.33686 10.8317 1.55458C9.71204 0.772298 8.37916 0.352783 7.01333 0.352783C5.6475 0.352783 4.31462 0.772298 3.195 1.55458C2.07539 2.33686 1.22307 3.44415 0.753331 4.72667C0.753331 4.72667 0.753331 4.72667 0.753331 4.76C0.228748 6.20727 0.228748 7.79274 0.753331 9.24C0.753331 9.24 0.753331 9.24 0.753331 9.27334C1.22307 10.5559 2.07539 11.6631 3.195 12.4454C4.31462 13.2277 5.6475 13.6472 7.01333 13.6472C8.37916 13.6472 9.71204 13.2277 10.8317 12.4454C11.9513 11.6631 12.8036 10.5559 13.2733 9.27334C13.2733 9.27334 13.2733 9.27334 13.2733 9.24C13.7979 7.79274 13.7979 6.20727 13.2733 4.76ZM1.84 8.33334C1.60882 7.45948 1.60882 6.54053 1.84 5.66667H3.08C2.97335 6.55236 2.97335 7.44765 3.08 8.33334H1.84ZM2.38666 9.66667H3.32C3.47648 10.2612 3.70014 10.836 3.98666 11.38C3.33286 10.9346 2.78633 10.3494 2.38666 9.66667ZM3.32 4.33334H2.38666C2.78058 3.65273 3.32013 3.06765 3.96666 2.62C3.68703 3.16483 3.47009 3.73962 3.32 4.33334ZM6.33333 12.1333C5.51451 11.5325 4.93943 10.6568 4.71333 9.66667H6.33333V12.1333ZM6.33333 8.33334H4.42666C4.30226 7.4488 4.30226 6.55121 4.42666 5.66667H6.33333V8.33334ZM6.33333 4.33334H4.71333C4.93943 3.34318 5.51451 2.46755 6.33333 1.86667V4.33334ZM11.6133 4.33334H10.68C10.5235 3.73877 10.2999 3.16396 10.0133 2.62C10.6671 3.06538 11.2137 3.65063 11.6133 4.33334ZM7.66666 1.86667C8.48549 2.46755 9.06057 3.34318 9.28666 4.33334H7.66666V1.86667ZM7.66666 12.1333V9.66667H9.28666C9.06057 10.6568 8.48549 11.5325 7.66666 12.1333ZM9.57333 8.33334H7.66666V5.66667H9.57333C9.69774 6.55121 9.69774 7.4488 9.57333 8.33334ZM10.0333 11.38C10.3199 10.836 10.5435 10.2612 10.7 9.66667H11.6333C11.2337 10.3494 10.6871 10.9346 10.0333 11.38ZM12.16 8.33334H10.92C10.9742 7.89097 11.0009 7.44567 11 7C11.0007 6.55434 10.974 6.10905 10.92 5.66667H12.16C12.3912 6.54053 12.3912 7.45948 12.16 8.33334Z" fill="#292D32"/>
</svg>
