<svg width="16" height="16" viewBox="0 0 16 16" fill="none" xmlns="http://www.w3.org/2000/svg">
<path d="M13.58 8.75002C13.415 8.75002 13.2425 8.69752 13.0775 8.66002C12.7433 8.58639 12.415 8.48864 12.095 8.36752C11.747 8.24095 11.3646 8.24752 11.0212 8.38598C10.6778 8.52444 10.3978 8.785 10.235 9.11752L10.07 9.45502C9.33946 9.04866 8.66819 8.54395 8.07495 7.95502C7.48603 7.36179 6.98132 6.69052 6.57495 5.96002L6.88995 5.75002C7.22248 5.58721 7.48304 5.30717 7.6215 4.96379C7.75996 4.62041 7.76653 4.23796 7.63995 3.89002C7.52087 3.56934 7.42316 3.24112 7.34745 2.90752C7.30995 2.74252 7.27995 2.57002 7.25745 2.39752C7.16638 1.86924 6.88967 1.39083 6.47717 1.04845C6.06467 0.706076 5.54348 0.52223 5.00745 0.530023H2.75745C2.43423 0.526988 2.11414 0.593633 1.81899 0.725421C1.52383 0.857209 1.26054 1.05105 1.04703 1.29373C0.833517 1.53642 0.674804 1.82227 0.581695 2.13181C0.488585 2.44135 0.463263 2.76732 0.507454 3.08752C0.907007 6.22956 2.34198 9.14893 4.58569 11.3845C6.82941 13.6201 9.75399 15.0444 12.8975 15.4325H13.1825C13.7355 15.4333 14.2695 15.2304 14.6825 14.8625C14.9197 14.6503 15.1093 14.3902 15.2386 14.0993C15.3678 13.8084 15.4339 13.4934 15.4325 13.175V10.925C15.4233 10.4041 15.2336 9.90244 14.8957 9.50577C14.5579 9.10911 14.0928 8.84199 13.58 8.75002ZM13.955 13.25C13.9548 13.3565 13.932 13.4618 13.888 13.5587C13.8441 13.6557 13.78 13.7422 13.7 13.8125C13.6164 13.8853 13.5184 13.9396 13.4125 13.9719C13.3065 14.0042 13.1949 14.0138 13.085 14C10.2761 13.6399 7.66713 12.3549 5.66949 10.3477C3.67185 8.34059 2.39926 5.72553 2.05245 2.91502C2.04052 2.80516 2.05098 2.69402 2.0832 2.58832C2.11543 2.48261 2.16876 2.38454 2.23995 2.30002C2.31024 2.22002 2.39675 2.1559 2.49374 2.11194C2.59073 2.06797 2.69597 2.04516 2.80245 2.04502H5.05245C5.22686 2.04114 5.39717 2.09818 5.53406 2.20633C5.67095 2.31447 5.76586 2.46695 5.80245 2.63752C5.83245 2.84252 5.86995 3.04502 5.91495 3.24502C6.00159 3.64038 6.1169 4.02891 6.25995 4.40752L5.20995 4.89502C5.12018 4.93621 5.03942 4.99473 4.97232 5.06722C4.90522 5.13971 4.8531 5.22473 4.81896 5.31742C4.78481 5.4101 4.76931 5.50862 4.77334 5.60731C4.77737 5.70601 4.80086 5.80293 4.84245 5.89252C5.92185 8.20459 7.78039 10.0631 10.0925 11.1425C10.2751 11.2175 10.4799 11.2175 10.6625 11.1425C10.756 11.1091 10.8419 11.0574 10.9153 10.9904C10.9887 10.9235 11.0481 10.8426 11.09 10.7525L11.555 9.70252C11.9427 9.84118 12.3384 9.95639 12.74 10.0475C12.94 10.0925 13.1425 10.13 13.3475 10.16C13.518 10.1966 13.6705 10.2915 13.7787 10.4284C13.8868 10.5653 13.9438 10.7356 13.94 10.91L13.955 13.25Z" fill="#555656"/>
</svg>
